<svg width="489" height="105" viewBox="0 0 489 105" fill="none" xmlns="http://www.w3.org/2000/svg">
<path d="M98.7658 103H62.3338L24.7498 30.568H24.1738C24.3658 32.2 24.5098 34.12 24.6058 36.328C24.7978 38.536 24.9418 40.84 25.0378 43.24C25.1338 45.64 25.2298 47.992 25.3258 50.296C25.4218 52.6 25.4698 54.712 25.4698 56.632V103H0.845814V0.183993H37.1338L74.5738 71.608H75.0058C74.9098 69.976 74.7658 68.104 74.5738 65.992C74.4778 63.784 74.3818 61.576 74.2858 59.368C74.1898 57.064 74.0938 54.808 73.9978 52.6C73.9978 50.392 73.9978 48.424 73.9978 46.696V0.183993H98.7658V103ZM166.3 103H138.508V22.936H113.452V0.183993H191.356V22.936H166.3V103ZM293.426 62.104C293.426 70.744 291.794 78.232 288.53 84.568C285.266 90.904 280.322 95.8 273.698 99.256C267.17 102.712 258.962 104.44 249.074 104.44C234.866 104.44 224.018 100.84 216.53 93.64C209.138 86.344 205.442 76.024 205.442 62.68V0.183993H233.378V60.52C233.378 67.816 234.722 73.096 237.41 76.36C240.194 79.624 244.226 81.256 249.506 81.256C253.346 81.256 256.418 80.536 258.722 79.096C261.122 77.656 262.85 75.4 263.906 72.328C265.058 69.256 265.634 65.272 265.634 60.376V0.183993H293.426V62.104ZM360.362 103H332.57V22.936H307.514V0.183993H385.418V22.936H360.362V103ZM488.208 103H460.272V61.096H428.016V103H400.08V0.183993H428.016V38.344H460.272V0.183993H488.208V103Z" fill="#F5F5F5"/>
</svg>
