<svg width="457" height="105" viewBox="0 0 457 105" fill="none" xmlns="http://www.w3.org/2000/svg">
<path d="M83.5859 0.625V103H62.4922L21.3594 34.375V103H0.265625V0.625H21.3594L62.5625 69.3203V0.625H83.5859ZM145.602 0.625V103H124.578V0.625H145.602ZM177.102 0.625V17.1484H93.5703V0.625H177.102ZM245.656 0.625H266.68V68.2656C266.68 76.1406 264.992 82.7734 261.617 88.1641C258.289 93.5547 253.672 97.6094 247.766 100.328C241.906 103.047 235.156 104.406 227.516 104.406C219.875 104.406 213.078 103.047 207.125 100.328C201.219 97.6094 196.578 93.5547 193.203 88.1641C189.875 82.7734 188.211 76.1406 188.211 68.2656V0.625H209.305V68.2656C209.305 72.8594 210.031 76.6094 211.484 79.5156C212.938 82.4219 215.023 84.5547 217.742 85.9141C220.508 87.2734 223.766 87.9531 227.516 87.9531C231.359 87.9531 234.617 87.2734 237.289 85.9141C240.008 84.5547 242.07 82.4219 243.477 79.5156C244.93 76.6094 245.656 72.8594 245.656 68.2656V0.625ZM329.82 0.625V103H308.797V0.625H329.82ZM361.32 0.625V17.1484H277.789V0.625H361.32ZM441.617 42.3203V58.7734H388.18V42.3203H441.617ZM394.438 0.625V103H373.344V0.625H394.438ZM456.664 0.625V103H435.641V0.625H456.664Z" fill="#F5F5F5"/>
</svg>
